<svg width="24" height="24" viewBox="0 0 24 24" fill="none" xmlns="http://www.w3.org/2000/svg">
<path d="M12 24C18.6274 24 24 18.6274 24 12C24 5.37258 18.6274 0 12 0C5.37258 0 0 5.37258 0 12C0 18.6274 5.37258 24 12 24Z" fill="#FF296D"/>
<path d="M8.893 10.723L12 7.616L15.109 10.725L16.917 8.917L12 4L7.085 8.915L8.893 10.723ZM4 12L5.808 10.192L7.616 12L5.808 13.808L4 12ZM8.893 13.277L12 16.384L15.109 13.275L16.917 15.083L12 20L7.082 15.082L8.893 13.276V13.277ZM16.384 12L18.192 10.192L20 12.001L18.192 13.809L16.384 12.001V12Z" fill="#F3BA2F"/>
<path d="M13.8341 11.999H13.8351L12.0001 10.164L10.1641 12L10.1671 12.003L12.0001 13.836L13.8361 12L13.8341 11.999Z" fill="#F3BA2F"/>
</svg>
