<svg width="16" height="16" viewBox="0 0 16 16" fill="none" xmlns="http://www.w3.org/2000/svg">
<path d="M8.0001 1.60001C4.4657 1.60001 1.6001 4.46561 1.6001 8.00001C1.6001 11.5344 4.4657 14.4 8.0001 14.4C11.5345 14.4 14.4001 11.5344 14.4001 8.00001C14.4001 4.46561 11.5345 1.60001 8.0001 1.60001ZM8.53343 11.2H7.46676V7.46667H8.53343V11.2ZM8.0001 6.13334C7.5585 6.13334 7.2001 5.77494 7.2001 5.33334C7.2001 4.89174 7.5585 4.53334 8.0001 4.53334C8.4417 4.53334 8.8001 4.89174 8.8001 5.33334C8.8001 5.77494 8.4417 6.13334 8.0001 6.13334Z" fill="white"/>
</svg>
