<svg width="29" height="29" viewBox="0 0 29 29" fill="none" xmlns="http://www.w3.org/2000/svg">
<g clip-path="url(#clip0)">
<path d="M14.5 29C11.6322 29 8.82875 28.1496 6.44424 26.5563C4.05973 24.963 2.20122 22.6984 1.10375 20.0489C0.00628253 17.3994 -0.280866 14.4839 0.27862 11.6712C0.838106 8.85847 2.2191 6.27482 4.24696 4.24696C6.27482 2.2191 8.85847 0.838106 11.6712 0.27862C14.4839 -0.280866 17.3994 0.00628253 20.0489 1.10375C22.6984 2.20122 24.963 4.05973 26.5563 6.44424C28.1496 8.82875 29 11.6322 29 14.5C28.9946 18.344 27.4652 22.029 24.7471 24.7471C22.029 27.4652 18.344 28.9946 14.5 29ZM14.5 1.01755C11.8334 1.01755 9.22673 1.80828 7.00956 3.28975C4.79238 4.77122 3.0643 6.8769 2.04384 9.34049C1.02339 11.8041 0.756388 14.515 1.27661 17.1303C1.79684 19.7456 3.08092 22.148 4.96647 24.0335C6.85203 25.9191 9.25437 27.2032 11.8697 27.7234C14.4851 28.2436 17.1959 27.9766 19.6595 26.9562C22.1231 25.9357 24.2288 24.2076 25.7103 21.9905C27.1917 19.7733 27.9825 17.1666 27.9825 14.5C27.9784 10.9255 26.5567 7.49851 24.0291 4.97093C21.5015 2.44336 18.0745 1.02159 14.5 1.01755Z" fill="white"/>
<path d="M13.1109 24.126C10.216 23.8767 7.81463 22.2893 6.8734 20.1372C6.58701 19.497 6.43962 18.8034 6.44094 18.1021C6.44094 15.9093 7.88077 13.9912 10.0329 12.9279L10.1295 12.8821C9.89162 12.8233 9.68291 12.6806 9.54177 12.4802C9.40064 12.2799 9.33656 12.0353 9.36131 11.7915C9.38607 11.5477 9.49799 11.321 9.67652 11.1531C9.85504 10.9851 10.0882 10.8873 10.3331 10.8775C10.5536 9.96423 11.0749 9.15166 11.8132 8.57049C12.5514 7.98932 13.4637 7.67332 14.4032 7.67332C15.3428 7.67332 16.255 7.98932 16.9933 8.57049C17.7315 9.15166 18.2528 9.96423 18.4734 10.8775C18.7177 10.8839 18.9516 10.978 19.1322 11.1425C19.3129 11.3071 19.4283 11.5312 19.4573 11.7739C19.4863 12.0166 19.427 12.2616 19.2903 12.4641C19.1535 12.6667 18.9484 12.8132 18.7125 12.877C18.6331 12.8872 18.5528 12.8872 18.4734 12.877C18.4429 12.9991 18.4123 13.1161 18.3716 13.2331C18.164 13.8412 17.8193 14.3934 17.364 14.8469C16.9088 15.3004 16.3553 15.643 15.7464 15.8482C15.5019 15.9277 15.2964 16.0967 15.1715 16.3214C14.8052 16.9472 14.1946 18.2802 14.6627 19.5674C15.0547 18.8789 15.606 18.2944 16.2704 17.863C17.5627 17.0744 19.5164 17.3237 19.5571 19.1451C19.5826 20.1498 19.2179 21.1254 18.5395 21.867C19.5686 21.2678 20.4597 20.4581 21.1546 19.491C24.6855 14.5152 21.6074 6.6242 14.505 6.42069C12.7391 6.39699 11.0118 6.93801 9.5749 7.96486C8.13804 8.99171 7.06676 10.4507 6.51726 12.1291C6.4985 12.2107 6.46303 12.2875 6.41309 12.3547C6.36315 12.4218 6.29982 12.4779 6.2271 12.5194C6.15438 12.5609 6.07385 12.5868 5.9906 12.5956C5.90735 12.6043 5.82319 12.5957 5.74343 12.5703C5.66368 12.5449 5.59005 12.5032 5.52721 12.4479C5.46438 12.3926 5.41369 12.3249 5.37836 12.249C5.34302 12.1731 5.32381 12.0907 5.32193 12.007C5.32005 11.9234 5.33555 11.8402 5.36744 11.7628C8.83726 1.71455 23.4746 3.81069 23.8867 14.5712C23.9987 20.7324 18.4581 24.8026 13.1109 24.126Z" fill="white"/>
<path d="M14.4943 10.7636C14.5009 10.7499 14.5046 10.735 14.5052 10.7198H14.49C14.5947 10.4475 14.7686 10.2072 14.9944 10.0226C15.2203 9.83797 15.4904 9.71538 15.7781 9.66692C16.0658 9.61846 16.3611 9.6458 16.635 9.74624C16.9089 9.84669 17.152 10.0168 17.3401 10.2397C17.5283 10.4627 17.6551 10.7308 17.708 11.0177C17.761 11.3046 17.7383 11.6004 17.6422 11.8758C17.546 12.1512 17.3798 12.3969 17.1598 12.5885C16.9398 12.7801 16.6737 12.9111 16.3877 12.9686C16.2407 13.0053 16.1105 13.0906 16.0181 13.2107C15.9257 13.3308 15.8767 13.4785 15.8789 13.63V13.9353C15.8789 14.2402 15.7578 14.5327 15.5421 14.7483C15.3265 14.964 15.034 15.0851 14.7291 15.0851H14.0321C13.7271 15.0851 13.4346 14.964 13.219 14.7483C13.0034 14.5327 12.8822 14.2402 12.8822 13.9353V13.63C12.8845 13.4785 12.8354 13.3308 12.743 13.2107C12.6507 13.0906 12.5204 13.0053 12.3735 12.9686C12.086 12.9115 11.8184 12.7803 11.5971 12.5881C11.3758 12.3958 11.2086 12.1491 11.1119 11.8724C11.0152 11.5957 10.9924 11.2986 11.0457 11.0103C11.0991 10.7221 11.2267 10.4528 11.416 10.2291C11.6054 10.0053 11.8498 9.83483 12.1253 9.73451C12.4007 9.63419 12.6975 9.6075 12.9864 9.65707C13.2753 9.70664 13.5463 9.83076 13.7725 10.0171C13.9987 10.2035 14.1724 10.4458 14.2763 10.7198C14.2786 10.7474 14.2906 10.7732 14.3101 10.7928C14.3297 10.8124 14.3555 10.8244 14.3831 10.8267C14.3982 10.8281 14.4135 10.8264 14.4279 10.8217C14.4423 10.817 14.4557 10.8094 14.4671 10.7995C14.4785 10.7895 14.4878 10.7772 14.4943 10.7636Z" fill="#010014"/>
<path d="M13.5132 11.9409C13.5152 11.9595 13.5108 11.9783 13.5006 11.9941C13.4904 12.0099 13.4751 12.0216 13.4572 12.0274H13.3911H13.3249H13.2588H13.1519C12.8752 12.0276 12.6051 11.9423 12.3786 11.7832C12.3121 11.7514 12.2475 11.7157 12.1853 11.6763C12.1399 11.628 12.0974 11.577 12.0581 11.5237C12.0205 11.47 11.9865 11.414 11.9563 11.3558C11.9311 11.3034 11.918 11.246 11.918 11.1879C11.918 11.1298 11.9311 11.0724 11.9563 11.02C11.9773 10.9728 12.0066 10.9297 12.0428 10.8928C12.0871 10.8474 12.1416 10.8131 12.2017 10.7927C12.2619 10.7724 12.326 10.7666 12.3888 10.7758C12.6739 10.8167 12.938 10.9487 13.1418 11.1523L13.1926 11.2032L13.2283 11.2489C13.2661 11.2887 13.2986 11.3331 13.3249 11.3812L13.3554 11.427C13.3669 11.4423 13.3756 11.4595 13.3809 11.4779L13.4063 11.5288V11.5796C13.4063 11.5796 13.4063 11.6254 13.4318 11.6458C13.4524 11.7088 13.4677 11.7735 13.4775 11.8391C13.4751 11.8509 13.4751 11.863 13.4775 11.8747C13.4953 11.893 13.5077 11.916 13.5132 11.9409Z" fill="white"/>
<path d="M16.8252 11.3405C16.7805 11.4279 16.7259 11.5099 16.6624 11.5847C16.6431 11.6109 16.6209 11.6348 16.5963 11.656C16.5401 11.7155 16.4788 11.77 16.4131 11.8188C16.1882 11.9772 15.92 12.0625 15.6449 12.063H15.5482H15.477H15.4007H15.3447C15.3282 12.0584 15.3136 12.0484 15.3035 12.0346C15.2933 12.0207 15.2881 12.0038 15.2887 11.9867C15.2859 11.963 15.2859 11.9391 15.2887 11.9154C15.294 11.8654 15.3043 11.816 15.3193 11.7679C15.3177 11.7459 15.3177 11.7238 15.3193 11.7018C15.3193 11.7018 15.3193 11.6611 15.3193 11.6407L15.3803 11.5135C15.4255 11.4237 15.4819 11.3399 15.5482 11.2642L15.5991 11.2133C15.6489 11.1591 15.7053 11.1112 15.767 11.0709C15.941 10.949 16.1416 10.8705 16.3521 10.8419C16.4137 10.8317 16.4769 10.8365 16.5363 10.856C16.5956 10.8755 16.6494 10.9091 16.693 10.9539C16.7292 10.9926 16.7585 11.0374 16.7794 11.0861C16.8009 11.1351 16.8119 11.1879 16.8119 11.2413C16.8119 11.2947 16.8009 11.3476 16.7794 11.3965L16.8252 11.3405Z" fill="white"/>
<path d="M18.5853 12.4751C18.5753 12.4767 18.565 12.4744 18.5565 12.4687C18.548 12.4631 18.542 12.4545 18.5395 12.4446C18.5639 12.2641 18.5758 12.0822 18.5752 11.9002C18.5761 11.7181 18.5642 11.5362 18.5395 11.3558C18.538 11.3457 18.5402 11.3354 18.5459 11.327C18.5515 11.3185 18.5602 11.3124 18.5701 11.31C18.725 11.3441 18.8602 11.4382 18.946 11.5717C19.0318 11.7051 19.0613 11.8671 19.028 12.0223C19.0049 12.1356 18.9493 12.2397 18.8679 12.3219C18.7866 12.4042 18.6831 12.4609 18.5701 12.4853L18.5853 12.4751Z" fill="white"/>
<path d="M10.2109 11.89C10.2102 12.0602 10.2221 12.2303 10.2465 12.3988C10.2469 12.4139 10.2421 12.4288 10.2328 12.4409C10.2236 12.4529 10.2104 12.4614 10.1956 12.4649C10.0415 12.4231 9.91014 12.3222 9.8301 12.184C9.75005 12.0458 9.72783 11.8817 9.76828 11.7272C9.79614 11.6255 9.85031 11.5329 9.92534 11.4587C10.0004 11.3846 10.0936 11.3315 10.1956 11.3049C10.2027 11.3026 10.2101 11.3019 10.2175 11.3027C10.2248 11.3036 10.2319 11.306 10.2382 11.3099C10.2445 11.3138 10.2498 11.319 10.2539 11.3252C10.258 11.3313 10.2607 11.3383 10.2618 11.3456C10.2309 11.5255 10.2139 11.7075 10.2109 11.89Z" fill="white"/>
</g>
<defs>
<clipPath id="clip0">
<rect width="29" height="29" fill="white"/>
</clipPath>
</defs>
</svg>
